# xmcd
# 
# Track frame offsets:
#     182
#     10985
#     22620
#     33692
#     44605
#     56295
#     66450
#     77902
#     88432
#     97777
#     107295
#     115682
#     126740
#     136617
#     146282
# 
# Disc length: 2068
# 
# Revision: 3
# Processed by: cddbd v1.5.2PL0 Copyright (c) Steve Scherf et al.
# Submitted via: fre:ac v1.1beta1pre5
# 
DISCID=c208120f
DTITLE=Little Richards - Tutti Frutti
DYEAR=0
DGENRE=
TTITLE0=Tutti Frutti
TTITLE1=Slippin` And Slidin`
TTITLE2=Lucille
TTITLE3=Send Me Some Lovin`
TTITLE4=She`s Got It
TTITLE5=Miss An
TTITLE6=Baby Face
TTITLE7=Rip It Up
TTITLE8=Long Tall Sally
TTITLE9=Good Golly Miss Molly
TTITLE10=Ooh! My Soul
TTITLE11=The Girl Can`t Help It
TTITLE12=Ready Teddy
TTITLE13=Keep A Knockin`
TTITLE14=Jenny, Jenny
EXTD=
EXTT0=
EXTT1=
EXTT2=
EXTT3=
EXTT4=
EXTT5=
EXTT6=
EXTT7=
EXTT8=
EXTT9=
EXTT10=
EXTT11=
EXTT12=
EXTT13=
EXTT14=
PLAYORDER=
